<svg version="1" xmlns="http://www.w3.org/2000/svg" width="682.667" height="682.667" viewBox="0 0 512.000000 512.000000"><path d="M145 97.1c-25.8 2.7-47.2 10.4-72 26.2-25.3 15.9-50.8 41.4-61.6 61.3-2.8 5.2-2.8 5.3-1.1 8.8 1.9 4 6.9 7.6 10.7 7.6 1.5 0 4.1-1.5 6.6-3.8 12.2-11.2 15.1-13.7 22.2-19.4C64.7 166 78.7 158 84.8 158c1.2 0 3.2 1 4.3 2.1 3.7 3.7 2.3 12.4-5.5 33.4-3.7 9.9-7.2 19.1-7.8 20.5-.5 1.4-4.4 11.5-8.5 22.5s-8.9 23.8-10.8 28.5c-12.7 32.7-22.3 59.4-26.6 74.4-4.5 16-5.3 21.1-5.2 32.6.4 20.3 15.8 39.3 34.9 42.9 5 1 20.7.8 24.2-.3.9-.3 3.2-.8 4.9-1.1 20.4-3.4 53-21 81.3-44 14.8-11.9 25.9-23 50.9-50.8 5.6-6.1 6.4-4.8 3 5-3.7 11-9.7 35.3-10.2 41.5-2.4 28.2 22.5 52.7 51.1 50.4 3.7-.3 7.8-.8 9.2-1.1 5.7-1.1 6.7-1.3 10.7-2.4 17-4.6 36-12.8 55.8-24 3.9-2.2 16-9.9 18-11.3.6-.5 5.5-4 11-8s10.2-7.5 10.5-7.8c.3-.3 3.4-3 7-5.9 13.4-11.2 34.6-33.5 52.9-55.6 22.7-27.4 44.7-66.3 54.3-95.9 6.4-19.9 8.3-32.4 8.2-52.1-.1-14.7-.4-17.4-2.5-24.5-6-19.3-23.9-31.1-45.3-29.7-19.8 1.2-34.6 13.1-40.1 32.1-1.6 5.4-1.6 16-.1 18.4.9 1.5 1.9 16.2 1.9 28.7 0 11.4-.7 21.6-1.9 28-.2 1-.6 3.7-1 6-.9 6.5-3.3 17.5-5.5 25.5-1.1 4.1-2.2 8.3-2.4 9.2-1.7 8.3-13.4 37.1-19.8 48.7-18.3 33.5-46.2 60.1-65.6 62.7-5.9.8-12.5-1.2-15.9-4.9-5.8-6.2-8.2-23.4-5.7-40.7.4-3 .9-6.2 1-7 1.4-10.1 6.9-31.1 12.4-47.2 8.4-24.4 14-37.1 34.8-78.3 8.3-16.6 11.6-24.6 13.7-33.8 2-8.5 2.2-19.3.6-24.4-5-15.1-20.3-24-40.5-23.4-26.2.6-41.7 11.2-53.6 36.5-4.1 8.8-9.5 27.5-16.3 57.1-1.7 7.5-9.1 29.1-14.1 41.1-14.6 35.4-40 72.7-70 102.9-23.3 23.5-40.5 31.3-45.9 20.7-1.5-3-1.4-7.1.4-14.7 1.2-5.4 6.1-21.1 9-29 7.4-20.2 17.3-46.9 23.2-62.5 3.8-10.2 7.1-19 7.2-19.5.2-.6.6-1.7.9-2.5.8-2.1 9.3-24.7 11-29.5.8-2.2 3.4-9.2 5.7-15.5 8.8-23.8 11.9-37.1 11.7-49-.2-7.2-.7-9.5-3.3-15-7.9-16.5-20.9-23-41.4-20.9z"/></svg>