<svg id="Layer_1" data-name="Layer 1" xmlns="http://www.w3.org/2000/svg" viewBox="0 0 126 81.34"><title>logo</title><path d="M47.18,10.77c0,2.85-1.33,7.41-3,12L33.69,50.87c-3.61,9.7-4.37,12.92-4.56,14.83,0,1.52.76,2.66,2.09,2.66,2.47,0,6.08-2.28,10.45-6.84,14.44-15.21,19.38-28.13,22.8-43.71C67.9,2.79,74.93,1.27,81.2,1.27c4.75,0,9.88,2.85,9.88,8.36,0,4.37-1.9,8.75-5.7,15.78C80.44,34.72,74.55,49.54,74.55,59.8c0,4.76,1.33,7.8,5.13,7.8,4.56,0,12.16-6.47,17.29-15.78,5.32-9.69,8-22.42,8-29.64a38.41,38.41,0,0,0-1-10.08c.57-6.84,5.51-10.83,12-10.83,9.31,1,11,7.79,11,14.25-.19,12.74-7.22,28.51-22.81,45.05-14.44,15.39-31.35,22-39.14,22-5.71,0-11.79-4.94-11.79-11.78,0-4,2.28-10.45,3.42-14.07h-.57c-1.71,1.71-6.84,7.61-10.26,10.84-7.6,6.84-19,15-29.46,15C8.22,82.61,5,75,5,71.4c0-3.8,1-8,4.37-17.11L21,23.51c1.52-4.18,1.34-6.66-.57-6.66-3.8,0-11.4,6.85-15.77,11a3.55,3.55,0,0,1-3.61-3C5.94,15,21.9,1.27,38.06,1.27,44.14,1.27,47.18,6.59,47.18,10.77Z" transform="translate(-1 -1.27)"/></svg>